<mxfile host="drawio-plugin" modified="2023-05-25T21:15:06.635Z" agent="5.0 (Windows NT 6.2; Win64; x64) AppleWebKit/537.36 (KHTML, like Gecko) Chrome/97.0.4692.45 Safari/537.36" etag="e9P9qrPY_DGKKLTdsps0" version="15.5.4" type="embed" pages="3"><diagram id="WxgBnSJdqSs48DEephpt" name="1 producer, 1 broker, 1 consumer"><mxGraphModel dx="1661" dy="3101" grid="1" gridSize="10" guides="1" tooltips="1" connect="1" arrows="1" fold="1" page="1" pageScale="1" pageWidth="850" pageHeight="1100" math="0" shadow="0"><root><mxCell id="0"/><mxCell id="1" parent="0"/><mxCell id="2" value="Партиция - единица многопоточности в Kafka. Топик состоит из партиций" style="text;html=1;strokeColor=none;fillColor=none;align=center;verticalAlign=middle;whiteSpace=wrap;rounded=0;" parent="1" vertex="1"><mxGeometry x="20" y="-2190" width="130" height="70" as="geometry"/></mxCell><mxCell id="3" value="Реплика - копия партиции хранимая на другом брокере для обеспечения отказоустойчивости" style="text;html=1;strokeColor=none;fillColor=none;align=center;verticalAlign=middle;whiteSpace=wrap;rounded=0;" parent="1" vertex="1"><mxGeometry x="170" y="-2190" width="130" height="70" as="geometry"/></mxCell><mxCell id="4" value="Producer" style="rounded=0;whiteSpace=wrap;html=1;" parent="1" vertex="1"><mxGeometry x="40" y="-1900" width="80" height="60" as="geometry"/></mxCell><mxCell id="5" value="Брокер" style="rounded=0;whiteSpace=wrap;html=1;" parent="1" vertex="1"><mxGeometry x="250" y="-1980" width="310" height="260" as="geometry"/></mxCell><mxCell id="6" value="Zookepeer" style="rounded=0;whiteSpace=wrap;html=1;" parent="1" vertex="1"><mxGeometry x="40" y="-2080" width="120" height="60" as="geometry"/></mxCell><mxCell id="7" value="партиция 1" style="rounded=0;whiteSpace=wrap;html=1;" parent="1" vertex="1"><mxGeometry x="280" y="-1950" width="80" height="20" as="geometry"/></mxCell><mxCell id="8" value="партиция 2" style="rounded=0;whiteSpace=wrap;html=1;" parent="1" vertex="1"><mxGeometry x="280" y="-1900" width="80" height="20" as="geometry"/></mxCell><mxCell id="9" value="партиция 3" style="rounded=0;whiteSpace=wrap;html=1;" parent="1" vertex="1"><mxGeometry x="280" y="-1830" width="80" height="20" as="geometry"/></mxCell><mxCell id="10" value="партиция 4" style="rounded=0;whiteSpace=wrap;html=1;" parent="1" vertex="1"><mxGeometry x="280" y="-1770" width="80" height="20" as="geometry"/></mxCell><mxCell id="17" value="" style="endArrow=classic;html=1;rounded=0;entryX=0;entryY=0.5;entryDx=0;entryDy=0;" parent="1" target="7" edge="1"><mxGeometry width="50" height="50" relative="1" as="geometry"><mxPoint x="120" y="-1900" as="sourcePoint"/><mxPoint x="170" y="-1950" as="targetPoint"/></mxGeometry></mxCell><mxCell id="18" value="" style="endArrow=classic;html=1;rounded=0;exitX=1;exitY=0.25;exitDx=0;exitDy=0;entryX=0;entryY=0.5;entryDx=0;entryDy=0;" parent="1" source="4" target="8" edge="1"><mxGeometry width="50" height="50" relative="1" as="geometry"><mxPoint x="150" y="-1840" as="sourcePoint"/><mxPoint x="200" y="-1890" as="targetPoint"/></mxGeometry></mxCell><mxCell id="19" value="" style="endArrow=classic;html=1;rounded=0;exitX=1.013;exitY=0.633;exitDx=0;exitDy=0;entryX=0;entryY=0.5;entryDx=0;entryDy=0;exitPerimeter=0;" parent="1" source="4" target="9" edge="1"><mxGeometry width="50" height="50" relative="1" as="geometry"><mxPoint x="120" y="-1820" as="sourcePoint"/><mxPoint x="170" y="-1870" as="targetPoint"/></mxGeometry></mxCell><mxCell id="20" value="" style="endArrow=classic;html=1;rounded=0;exitX=1;exitY=0.5;exitDx=0;exitDy=0;entryX=0;entryY=0.25;entryDx=0;entryDy=0;" parent="1" target="10" edge="1"><mxGeometry width="50" height="50" relative="1" as="geometry"><mxPoint x="120" y="-1840" as="sourcePoint"/><mxPoint x="280" y="-1790" as="targetPoint"/></mxGeometry></mxCell><mxCell id="21" value="ConsumerGroup" style="rounded=0;whiteSpace=wrap;html=1;" parent="1" vertex="1"><mxGeometry x="640" y="-1980" width="190" height="260" as="geometry"/></mxCell><mxCell id="23" value="consumer" style="rounded=0;whiteSpace=wrap;html=1;" parent="1" vertex="1"><mxGeometry x="675" y="-1950" width="120" height="60" as="geometry"/></mxCell><mxCell id="24" value="consumer" style="rounded=0;whiteSpace=wrap;html=1;" parent="1" vertex="1"><mxGeometry x="675" y="-1810" width="120" height="60" as="geometry"/></mxCell><mxCell id="25" value="" style="endArrow=classic;html=1;rounded=0;exitX=1;exitY=0.25;exitDx=0;exitDy=0;entryX=0;entryY=0.5;entryDx=0;entryDy=0;" parent="1" source="7" target="24" edge="1"><mxGeometry width="50" height="50" relative="1" as="geometry"><mxPoint x="420" y="-2010" as="sourcePoint"/><mxPoint x="470" y="-2060" as="targetPoint"/></mxGeometry></mxCell><mxCell id="26" value="" style="endArrow=classic;html=1;rounded=0;entryX=0;entryY=0.5;entryDx=0;entryDy=0;" parent="1" target="23" edge="1"><mxGeometry width="50" height="50" relative="1" as="geometry"><mxPoint x="360" y="-1770" as="sourcePoint"/><mxPoint x="410" y="-1820" as="targetPoint"/></mxGeometry></mxCell><mxCell id="30" value="" style="endArrow=classic;html=1;rounded=0;exitX=1;exitY=0.5;exitDx=0;exitDy=0;entryX=0;entryY=0.5;entryDx=0;entryDy=0;" parent="1" source="8" target="23" edge="1"><mxGeometry width="50" height="50" relative="1" as="geometry"><mxPoint x="360" y="-1840" as="sourcePoint"/><mxPoint x="410" y="-1890" as="targetPoint"/></mxGeometry></mxCell><mxCell id="31" value="" style="endArrow=classic;html=1;rounded=0;exitX=1;exitY=0.5;exitDx=0;exitDy=0;entryX=0;entryY=0.5;entryDx=0;entryDy=0;" parent="1" source="9" target="24" edge="1"><mxGeometry width="50" height="50" relative="1" as="geometry"><mxPoint x="370" y="-1770" as="sourcePoint"/><mxPoint x="420" y="-1820" as="targetPoint"/></mxGeometry></mxCell><mxCell id="VqdLLoVXt3Un09CqMUB2-31" value="Zookepeer - координирует распределение партиций и реплик между брокерами, а также опередляет кто откуда будет читать" style="text;html=1;strokeColor=none;fillColor=none;align=center;verticalAlign=middle;whiteSpace=wrap;rounded=0;" parent="1" vertex="1"><mxGeometry x="310" y="-2200" width="160" height="90" as="geometry"/></mxCell></root></mxGraphModel></diagram><diagram id="ta51nAYA3QXLqL21Wpxs" name="1 producer, 1 broker, 2 consumer group"><mxGraphModel dx="1163" dy="2831" grid="1" gridSize="10" guides="1" tooltips="1" connect="1" arrows="1" fold="1" page="1" pageScale="1" pageWidth="850" pageHeight="1100" math="0" shadow="0"><root><mxCell id="V5rIAAFfvK1H-dJICh70-0"/><mxCell id="V5rIAAFfvK1H-dJICh70-1" parent="V5rIAAFfvK1H-dJICh70-0"/><mxCell id="_8TojAN9AsdRN_-3AH_U-0" value="Партиция - единица многопоточности в Kafka. Топик состоит из партиций" style="text;html=1;strokeColor=none;fillColor=none;align=center;verticalAlign=middle;whiteSpace=wrap;rounded=0;" parent="V5rIAAFfvK1H-dJICh70-1" vertex="1"><mxGeometry x="20" y="-2190" width="130" height="70" as="geometry"/></mxCell><mxCell id="_8TojAN9AsdRN_-3AH_U-1" value="Реплика - копия партиции хранимая на другом брокере для обеспечения отказоустойчивости" style="text;html=1;strokeColor=none;fillColor=none;align=center;verticalAlign=middle;whiteSpace=wrap;rounded=0;" parent="V5rIAAFfvK1H-dJICh70-1" vertex="1"><mxGeometry x="170" y="-2190" width="130" height="70" as="geometry"/></mxCell><mxCell id="_8TojAN9AsdRN_-3AH_U-2" value="Producer" style="rounded=0;whiteSpace=wrap;html=1;" parent="V5rIAAFfvK1H-dJICh70-1" vertex="1"><mxGeometry x="40" y="-1900" width="80" height="60" as="geometry"/></mxCell><mxCell id="_8TojAN9AsdRN_-3AH_U-3" value="Брокер" style="rounded=0;whiteSpace=wrap;html=1;" parent="V5rIAAFfvK1H-dJICh70-1" vertex="1"><mxGeometry x="250" y="-1980" width="310" height="260" as="geometry"/></mxCell><mxCell id="_8TojAN9AsdRN_-3AH_U-4" value="Zookepeer" style="rounded=0;whiteSpace=wrap;html=1;" parent="V5rIAAFfvK1H-dJICh70-1" vertex="1"><mxGeometry x="40" y="-2080" width="120" height="60" as="geometry"/></mxCell><mxCell id="_8TojAN9AsdRN_-3AH_U-5" value="партиция 1" style="rounded=0;whiteSpace=wrap;html=1;" parent="V5rIAAFfvK1H-dJICh70-1" vertex="1"><mxGeometry x="280" y="-1950" width="80" height="20" as="geometry"/></mxCell><mxCell id="_8TojAN9AsdRN_-3AH_U-6" value="партиция 2" style="rounded=0;whiteSpace=wrap;html=1;" parent="V5rIAAFfvK1H-dJICh70-1" vertex="1"><mxGeometry x="280" y="-1900" width="80" height="20" as="geometry"/></mxCell><mxCell id="_8TojAN9AsdRN_-3AH_U-7" value="партиция 3" style="rounded=0;whiteSpace=wrap;html=1;" parent="V5rIAAFfvK1H-dJICh70-1" vertex="1"><mxGeometry x="280" y="-1830" width="80" height="20" as="geometry"/></mxCell><mxCell id="_8TojAN9AsdRN_-3AH_U-8" value="партиция 4" style="rounded=0;whiteSpace=wrap;html=1;" parent="V5rIAAFfvK1H-dJICh70-1" vertex="1"><mxGeometry x="280" y="-1770" width="80" height="20" as="geometry"/></mxCell><mxCell id="_8TojAN9AsdRN_-3AH_U-13" value="" style="endArrow=classic;html=1;rounded=0;entryX=0;entryY=0.5;entryDx=0;entryDy=0;" parent="V5rIAAFfvK1H-dJICh70-1" target="_8TojAN9AsdRN_-3AH_U-5" edge="1"><mxGeometry width="50" height="50" relative="1" as="geometry"><mxPoint x="120" y="-1900" as="sourcePoint"/><mxPoint x="170" y="-1950" as="targetPoint"/></mxGeometry></mxCell><mxCell id="_8TojAN9AsdRN_-3AH_U-14" value="" style="endArrow=classic;html=1;rounded=0;exitX=1;exitY=0.25;exitDx=0;exitDy=0;entryX=0;entryY=0.5;entryDx=0;entryDy=0;" parent="V5rIAAFfvK1H-dJICh70-1" source="_8TojAN9AsdRN_-3AH_U-2" target="_8TojAN9AsdRN_-3AH_U-6" edge="1"><mxGeometry width="50" height="50" relative="1" as="geometry"><mxPoint x="150" y="-1840" as="sourcePoint"/><mxPoint x="200" y="-1890" as="targetPoint"/></mxGeometry></mxCell><mxCell id="_8TojAN9AsdRN_-3AH_U-15" value="" style="endArrow=classic;html=1;rounded=0;exitX=1.013;exitY=0.633;exitDx=0;exitDy=0;entryX=0;entryY=0.5;entryDx=0;entryDy=0;exitPerimeter=0;" parent="V5rIAAFfvK1H-dJICh70-1" source="_8TojAN9AsdRN_-3AH_U-2" target="_8TojAN9AsdRN_-3AH_U-7" edge="1"><mxGeometry width="50" height="50" relative="1" as="geometry"><mxPoint x="120" y="-1820" as="sourcePoint"/><mxPoint x="170" y="-1870" as="targetPoint"/></mxGeometry></mxCell><mxCell id="_8TojAN9AsdRN_-3AH_U-16" value="" style="endArrow=classic;html=1;rounded=0;exitX=1;exitY=0.5;exitDx=0;exitDy=0;entryX=0;entryY=0.25;entryDx=0;entryDy=0;" parent="V5rIAAFfvK1H-dJICh70-1" target="_8TojAN9AsdRN_-3AH_U-8" edge="1"><mxGeometry width="50" height="50" relative="1" as="geometry"><mxPoint x="120" y="-1840" as="sourcePoint"/><mxPoint x="280" y="-1790" as="targetPoint"/></mxGeometry></mxCell><mxCell id="_8TojAN9AsdRN_-3AH_U-17" value="ConsumerGroup 1" style="rounded=0;whiteSpace=wrap;html=1;" parent="V5rIAAFfvK1H-dJICh70-1" vertex="1"><mxGeometry x="640" y="-2190" width="190" height="260" as="geometry"/></mxCell><mxCell id="_8TojAN9AsdRN_-3AH_U-18" value="consumer" style="rounded=0;whiteSpace=wrap;html=1;" parent="V5rIAAFfvK1H-dJICh70-1" vertex="1"><mxGeometry x="675" y="-2160" width="120" height="60" as="geometry"/></mxCell><mxCell id="_8TojAN9AsdRN_-3AH_U-19" value="consumer" style="rounded=0;whiteSpace=wrap;html=1;" parent="V5rIAAFfvK1H-dJICh70-1" vertex="1"><mxGeometry x="675" y="-2020" width="120" height="60" as="geometry"/></mxCell><mxCell id="_8TojAN9AsdRN_-3AH_U-20" value="" style="endArrow=classic;html=1;rounded=0;exitX=1;exitY=0.25;exitDx=0;exitDy=0;entryX=0;entryY=0.5;entryDx=0;entryDy=0;" parent="V5rIAAFfvK1H-dJICh70-1" source="_8TojAN9AsdRN_-3AH_U-5" target="_8TojAN9AsdRN_-3AH_U-19" edge="1"><mxGeometry width="50" height="50" relative="1" as="geometry"><mxPoint x="420" y="-2010" as="sourcePoint"/><mxPoint x="470" y="-2060" as="targetPoint"/></mxGeometry></mxCell><mxCell id="_8TojAN9AsdRN_-3AH_U-21" value="" style="endArrow=classic;html=1;rounded=0;entryX=0;entryY=0.5;entryDx=0;entryDy=0;" parent="V5rIAAFfvK1H-dJICh70-1" target="_8TojAN9AsdRN_-3AH_U-18" edge="1"><mxGeometry width="50" height="50" relative="1" as="geometry"><mxPoint x="360" y="-1770" as="sourcePoint"/><mxPoint x="410" y="-1820" as="targetPoint"/></mxGeometry></mxCell><mxCell id="_8TojAN9AsdRN_-3AH_U-22" value="" style="endArrow=classic;html=1;rounded=0;exitX=1;exitY=0.5;exitDx=0;exitDy=0;entryX=0;entryY=0.5;entryDx=0;entryDy=0;" parent="V5rIAAFfvK1H-dJICh70-1" source="_8TojAN9AsdRN_-3AH_U-6" target="_8TojAN9AsdRN_-3AH_U-18" edge="1"><mxGeometry width="50" height="50" relative="1" as="geometry"><mxPoint x="360" y="-1840" as="sourcePoint"/><mxPoint x="410" y="-1890" as="targetPoint"/></mxGeometry></mxCell><mxCell id="_8TojAN9AsdRN_-3AH_U-23" value="" style="endArrow=classic;html=1;rounded=0;exitX=1;exitY=0.5;exitDx=0;exitDy=0;entryX=0;entryY=0.5;entryDx=0;entryDy=0;" parent="V5rIAAFfvK1H-dJICh70-1" source="_8TojAN9AsdRN_-3AH_U-7" target="_8TojAN9AsdRN_-3AH_U-19" edge="1"><mxGeometry width="50" height="50" relative="1" as="geometry"><mxPoint x="370" y="-1770" as="sourcePoint"/><mxPoint x="420" y="-1820" as="targetPoint"/></mxGeometry></mxCell><mxCell id="_8TojAN9AsdRN_-3AH_U-24" value="&lt;br&gt;&lt;br&gt;&lt;br&gt;&lt;br&gt;&lt;br&gt;&lt;br&gt;&lt;br&gt;&lt;br&gt;&lt;br&gt;&lt;br&gt;&lt;br&gt;&lt;br&gt;&lt;br&gt;&lt;br&gt;&lt;br&gt;&lt;br&gt;&lt;br&gt;ConsumerGroup 2" style="rounded=0;whiteSpace=wrap;html=1;" parent="V5rIAAFfvK1H-dJICh70-1" vertex="1"><mxGeometry x="640" y="-1900" width="190" height="300" as="geometry"/></mxCell><mxCell id="_8TojAN9AsdRN_-3AH_U-25" value="consumer" style="rounded=0;whiteSpace=wrap;html=1;" parent="V5rIAAFfvK1H-dJICh70-1" vertex="1"><mxGeometry x="675" y="-1870" width="120" height="60" as="geometry"/></mxCell><mxCell id="_8TojAN9AsdRN_-3AH_U-26" value="consumer" style="rounded=0;whiteSpace=wrap;html=1;" parent="V5rIAAFfvK1H-dJICh70-1" vertex="1"><mxGeometry x="675" y="-1790" width="120" height="60" as="geometry"/></mxCell><mxCell id="_8TojAN9AsdRN_-3AH_U-27" value="" style="endArrow=classic;html=1;rounded=0;entryX=0;entryY=0.5;entryDx=0;entryDy=0;" parent="V5rIAAFfvK1H-dJICh70-1" target="_8TojAN9AsdRN_-3AH_U-26" edge="1"><mxGeometry width="50" height="50" relative="1" as="geometry"><mxPoint x="360" y="-1890" as="sourcePoint"/><mxPoint x="410" y="-1890" as="targetPoint"/></mxGeometry></mxCell><mxCell id="_8TojAN9AsdRN_-3AH_U-28" value="" style="endArrow=classic;html=1;rounded=0;entryX=0;entryY=0.5;entryDx=0;entryDy=0;exitX=1;exitY=0.25;exitDx=0;exitDy=0;" parent="V5rIAAFfvK1H-dJICh70-1" source="_8TojAN9AsdRN_-3AH_U-7" target="_8TojAN9AsdRN_-3AH_U-26" edge="1"><mxGeometry width="50" height="50" relative="1" as="geometry"><mxPoint x="370" y="-1880" as="sourcePoint"/><mxPoint x="695" y="-1590" as="targetPoint"/></mxGeometry></mxCell><mxCell id="0cq6N2n4ljfwEzkCq9X7-0" style="edgeStyle=orthogonalEdgeStyle;rounded=0;orthogonalLoop=1;jettySize=auto;html=1;exitX=0.5;exitY=1;exitDx=0;exitDy=0;" parent="V5rIAAFfvK1H-dJICh70-1" source="_8TojAN9AsdRN_-3AH_U-24" target="_8TojAN9AsdRN_-3AH_U-24" edge="1"><mxGeometry relative="1" as="geometry"/></mxCell><mxCell id="0cq6N2n4ljfwEzkCq9X7-1" value="consumer" style="rounded=0;whiteSpace=wrap;html=1;" parent="V5rIAAFfvK1H-dJICh70-1" vertex="1"><mxGeometry x="675" y="-1710" width="120" height="60" as="geometry"/></mxCell><mxCell id="0cq6N2n4ljfwEzkCq9X7-2" value="" style="endArrow=classic;html=1;rounded=0;exitX=1;exitY=0.25;exitDx=0;exitDy=0;entryX=0;entryY=0.5;entryDx=0;entryDy=0;" parent="V5rIAAFfvK1H-dJICh70-1" source="_8TojAN9AsdRN_-3AH_U-5" target="_8TojAN9AsdRN_-3AH_U-25" edge="1"><mxGeometry width="50" height="50" relative="1" as="geometry"><mxPoint x="360" y="-1890" as="sourcePoint"/><mxPoint x="410" y="-1940" as="targetPoint"/></mxGeometry></mxCell><mxCell id="0cq6N2n4ljfwEzkCq9X7-3" value="" style="endArrow=classic;html=1;rounded=0;exitX=1;exitY=0.5;exitDx=0;exitDy=0;entryX=0;entryY=0.5;entryDx=0;entryDy=0;" parent="V5rIAAFfvK1H-dJICh70-1" source="_8TojAN9AsdRN_-3AH_U-8" target="0cq6N2n4ljfwEzkCq9X7-1" edge="1"><mxGeometry width="50" height="50" relative="1" as="geometry"><mxPoint x="360" y="-1710" as="sourcePoint"/><mxPoint x="410" y="-1760" as="targetPoint"/></mxGeometry></mxCell><mxCell id="I_v3QdjfETytYgCzz_O_-0" value="Zookepeer - координирует распределение партиций и реплик между брокерами, а также опередляет кто откуда будет читать" style="text;html=1;strokeColor=none;fillColor=none;align=center;verticalAlign=middle;whiteSpace=wrap;rounded=0;" parent="V5rIAAFfvK1H-dJICh70-1" vertex="1"><mxGeometry x="310" y="-2200" width="160" height="90" as="geometry"/></mxCell><mxCell id="5JrhzQQNKUY92hDAKloh-0" style="edgeStyle=orthogonalEdgeStyle;rounded=0;orthogonalLoop=1;jettySize=auto;html=1;exitX=0.5;exitY=1;exitDx=0;exitDy=0;" edge="1" parent="V5rIAAFfvK1H-dJICh70-1" source="_8TojAN9AsdRN_-3AH_U-24" target="_8TojAN9AsdRN_-3AH_U-24"><mxGeometry relative="1" as="geometry"/></mxCell></root></mxGraphModel></diagram><diagram id="bznFf2-64fsqisUJYQCU" name="1 producer, 2 broker, 2 consumer group"><mxGraphModel dx="1368" dy="2942" grid="1" gridSize="10" guides="1" tooltips="1" connect="1" arrows="1" fold="1" page="1" pageScale="1" pageWidth="850" pageHeight="1100" math="0" shadow="0"><root><mxCell id="1hRbBe43qiNondQs3U6A-0"/><mxCell id="1hRbBe43qiNondQs3U6A-1" parent="1hRbBe43qiNondQs3U6A-0"/><mxCell id="Vt1QMG08_VuoLKd44Awn-0" value="Партиция - единица многопоточности в Kafka. Топик состоит из партиций" style="text;html=1;strokeColor=none;fillColor=none;align=center;verticalAlign=middle;whiteSpace=wrap;rounded=0;" parent="1hRbBe43qiNondQs3U6A-1" vertex="1"><mxGeometry x="20" y="-2190" width="130" height="70" as="geometry"/></mxCell><mxCell id="Vt1QMG08_VuoLKd44Awn-1" value="Реплика - копия партиции хранимая на другом брокере для обеспечения отказоустойчивости" style="text;html=1;strokeColor=none;fillColor=none;align=center;verticalAlign=middle;whiteSpace=wrap;rounded=0;" parent="1hRbBe43qiNondQs3U6A-1" vertex="1"><mxGeometry x="170" y="-2190" width="130" height="70" as="geometry"/></mxCell><mxCell id="Vt1QMG08_VuoLKd44Awn-2" value="Producer" style="rounded=0;whiteSpace=wrap;html=1;" parent="1hRbBe43qiNondQs3U6A-1" vertex="1"><mxGeometry x="30" y="-1840" width="80" height="60" as="geometry"/></mxCell><mxCell id="Vt1QMG08_VuoLKd44Awn-3" value="Брокер" style="rounded=0;whiteSpace=wrap;html=1;" parent="1hRbBe43qiNondQs3U6A-1" vertex="1"><mxGeometry x="250" y="-2040" width="310" height="220" as="geometry"/></mxCell><mxCell id="Vt1QMG08_VuoLKd44Awn-4" value="Zookepeer" style="rounded=0;whiteSpace=wrap;html=1;" parent="1hRbBe43qiNondQs3U6A-1" vertex="1"><mxGeometry x="40" y="-2080" width="120" height="60" as="geometry"/></mxCell><mxCell id="Vt1QMG08_VuoLKd44Awn-6" value="партиция 2" style="rounded=0;whiteSpace=wrap;html=1;" parent="1hRbBe43qiNondQs3U6A-1" vertex="1"><mxGeometry x="290" y="-2000" width="80" height="20" as="geometry"/></mxCell><mxCell id="Vt1QMG08_VuoLKd44Awn-8" value="партиция 4" style="rounded=0;whiteSpace=wrap;html=1;" parent="1hRbBe43qiNondQs3U6A-1" vertex="1"><mxGeometry x="290" y="-1880" width="80" height="20" as="geometry"/></mxCell><mxCell id="Vt1QMG08_VuoLKd44Awn-9" value="реплика 1" style="rounded=0;whiteSpace=wrap;html=1;" parent="1hRbBe43qiNondQs3U6A-1" vertex="1"><mxGeometry x="450" y="-2030" width="80" height="20" as="geometry"/></mxCell><mxCell id="Vt1QMG08_VuoLKd44Awn-14" value="" style="endArrow=classic;html=1;rounded=0;exitX=1;exitY=0.25;exitDx=0;exitDy=0;entryX=0;entryY=0.5;entryDx=0;entryDy=0;" parent="1hRbBe43qiNondQs3U6A-1" source="Vt1QMG08_VuoLKd44Awn-2" target="Vt1QMG08_VuoLKd44Awn-6" edge="1"><mxGeometry width="50" height="50" relative="1" as="geometry"><mxPoint x="150" y="-1840" as="sourcePoint"/><mxPoint x="200" y="-1890" as="targetPoint"/></mxGeometry></mxCell><mxCell id="Vt1QMG08_VuoLKd44Awn-16" value="" style="endArrow=classic;html=1;rounded=0;exitX=1;exitY=1;exitDx=0;exitDy=0;entryX=0;entryY=0.25;entryDx=0;entryDy=0;" parent="1hRbBe43qiNondQs3U6A-1" source="Vt1QMG08_VuoLKd44Awn-2" target="Vt1QMG08_VuoLKd44Awn-8" edge="1"><mxGeometry width="50" height="50" relative="1" as="geometry"><mxPoint x="120" y="-1840" as="sourcePoint"/><mxPoint x="280" y="-1790" as="targetPoint"/></mxGeometry></mxCell><mxCell id="Vt1QMG08_VuoLKd44Awn-17" value="ConsumerGroup 1" style="rounded=0;whiteSpace=wrap;html=1;" parent="1hRbBe43qiNondQs3U6A-1" vertex="1"><mxGeometry x="620" y="-2040" width="190" height="190" as="geometry"/></mxCell><mxCell id="Vt1QMG08_VuoLKd44Awn-18" value="consumer" style="rounded=0;whiteSpace=wrap;html=1;" parent="1hRbBe43qiNondQs3U6A-1" vertex="1"><mxGeometry x="655" y="-2020" width="120" height="60" as="geometry"/></mxCell><mxCell id="Vt1QMG08_VuoLKd44Awn-22" value="" style="endArrow=classic;html=1;rounded=0;exitX=1;exitY=0.5;exitDx=0;exitDy=0;entryX=0;entryY=0.5;entryDx=0;entryDy=0;" parent="1hRbBe43qiNondQs3U6A-1" source="Vt1QMG08_VuoLKd44Awn-6" target="Vt1QMG08_VuoLKd44Awn-18" edge="1"><mxGeometry width="50" height="50" relative="1" as="geometry"><mxPoint x="360" y="-1840" as="sourcePoint"/><mxPoint x="410" y="-1890" as="targetPoint"/></mxGeometry></mxCell><mxCell id="Vt1QMG08_VuoLKd44Awn-24" value="Брокер" style="rounded=0;whiteSpace=wrap;html=1;" parent="1hRbBe43qiNondQs3U6A-1" vertex="1"><mxGeometry x="250" y="-1800" width="310" height="230" as="geometry"/></mxCell><mxCell id="Vt1QMG08_VuoLKd44Awn-7" value="партиция 3" style="rounded=0;whiteSpace=wrap;html=1;align=center;" parent="1hRbBe43qiNondQs3U6A-1" vertex="1"><mxGeometry x="290" y="-1780" width="80" height="20" as="geometry"/></mxCell><mxCell id="Vt1QMG08_VuoLKd44Awn-15" value="" style="endArrow=classic;html=1;rounded=0;exitX=1.013;exitY=0.633;exitDx=0;exitDy=0;entryX=0;entryY=0.5;entryDx=0;entryDy=0;exitPerimeter=0;" parent="1hRbBe43qiNondQs3U6A-1" source="Vt1QMG08_VuoLKd44Awn-2" target="Vt1QMG08_VuoLKd44Awn-7" edge="1"><mxGeometry width="50" height="50" relative="1" as="geometry"><mxPoint x="120" y="-1820" as="sourcePoint"/><mxPoint x="170" y="-1870" as="targetPoint"/></mxGeometry></mxCell><mxCell id="Vt1QMG08_VuoLKd44Awn-5" value="партиция 1" style="rounded=0;whiteSpace=wrap;html=1;" parent="1hRbBe43qiNondQs3U6A-1" vertex="1"><mxGeometry x="290" y="-1620" width="80" height="20" as="geometry"/></mxCell><mxCell id="Vt1QMG08_VuoLKd44Awn-13" value="" style="endArrow=classic;html=1;rounded=0;entryX=0;entryY=0.5;entryDx=0;entryDy=0;exitX=1;exitY=0;exitDx=0;exitDy=0;" parent="1hRbBe43qiNondQs3U6A-1" source="Vt1QMG08_VuoLKd44Awn-2" target="Vt1QMG08_VuoLKd44Awn-5" edge="1"><mxGeometry width="50" height="50" relative="1" as="geometry"><mxPoint x="120" y="-1900" as="sourcePoint"/><mxPoint x="170" y="-1950" as="targetPoint"/></mxGeometry></mxCell><mxCell id="Vt1QMG08_VuoLKd44Awn-20" value="" style="endArrow=classic;html=1;rounded=0;exitX=1;exitY=0.25;exitDx=0;exitDy=0;entryX=0.006;entryY=0.633;entryDx=0;entryDy=0;entryPerimeter=0;" parent="1hRbBe43qiNondQs3U6A-1" source="Vt1QMG08_VuoLKd44Awn-5" target="Vt1QMG08_VuoLKd44Awn-18" edge="1"><mxGeometry width="50" height="50" relative="1" as="geometry"><mxPoint x="420" y="-2010" as="sourcePoint"/><mxPoint x="675" y="-1920" as="targetPoint"/></mxGeometry></mxCell><mxCell id="Vt1QMG08_VuoLKd44Awn-23" value="" style="endArrow=classic;html=1;rounded=0;exitX=1;exitY=0.5;exitDx=0;exitDy=0;entryX=0;entryY=0.5;entryDx=0;entryDy=0;" parent="1hRbBe43qiNondQs3U6A-1" source="Vt1QMG08_VuoLKd44Awn-7" target="Vt1QMG08_VuoLKd44Awn-18" edge="1"><mxGeometry width="50" height="50" relative="1" as="geometry"><mxPoint x="370" y="-1770" as="sourcePoint"/><mxPoint x="675" y="-1780" as="targetPoint"/></mxGeometry></mxCell><mxCell id="Vt1QMG08_VuoLKd44Awn-10" value="реплика 2" style="rounded=0;whiteSpace=wrap;html=1;" parent="1hRbBe43qiNondQs3U6A-1" vertex="1"><mxGeometry x="450" y="-1750" width="80" height="20" as="geometry"/></mxCell><mxCell id="Vt1QMG08_VuoLKd44Awn-12" value="реплика 4" style="rounded=0;whiteSpace=wrap;html=1;" parent="1hRbBe43qiNondQs3U6A-1" vertex="1"><mxGeometry x="450" y="-1600" width="80" height="20" as="geometry"/></mxCell><mxCell id="Vt1QMG08_VuoLKd44Awn-21" value="" style="endArrow=classic;html=1;rounded=0;entryX=0;entryY=0.5;entryDx=0;entryDy=0;exitX=1;exitY=0.25;exitDx=0;exitDy=0;" parent="1hRbBe43qiNondQs3U6A-1" source="Vt1QMG08_VuoLKd44Awn-8" target="Vt1QMG08_VuoLKd44Awn-18" edge="1"><mxGeometry width="50" height="50" relative="1" as="geometry"><mxPoint x="360" y="-1770" as="sourcePoint"/><mxPoint x="410" y="-1820" as="targetPoint"/></mxGeometry></mxCell><mxCell id="Vt1QMG08_VuoLKd44Awn-26" value="ConsumerGroup 2" style="rounded=0;whiteSpace=wrap;html=1;" parent="1hRbBe43qiNondQs3U6A-1" vertex="1"><mxGeometry x="630" y="-1780" width="190" height="210" as="geometry"/></mxCell><mxCell id="Vt1QMG08_VuoLKd44Awn-27" value="consumer" style="rounded=0;whiteSpace=wrap;html=1;" parent="1hRbBe43qiNondQs3U6A-1" vertex="1"><mxGeometry x="665" y="-1750" width="120" height="60" as="geometry"/></mxCell><mxCell id="g3LJiwDds4nOrlNxQ178-0" value="" style="endArrow=classic;html=1;rounded=0;entryX=0;entryY=0.5;entryDx=0;entryDy=0;exitX=1;exitY=0.5;exitDx=0;exitDy=0;startArrow=none;" parent="1hRbBe43qiNondQs3U6A-1" source="Vt1QMG08_VuoLKd44Awn-6" target="Vt1QMG08_VuoLKd44Awn-27" edge="1"><mxGeometry width="50" height="50" relative="1" as="geometry"><mxPoint x="530" y="-1870" as="sourcePoint"/><mxPoint x="410" y="-1990" as="targetPoint"/></mxGeometry></mxCell><mxCell id="g3LJiwDds4nOrlNxQ178-1" value="" style="endArrow=classic;html=1;rounded=0;exitX=1;exitY=0.5;exitDx=0;exitDy=0;entryX=0;entryY=0.5;entryDx=0;entryDy=0;" parent="1hRbBe43qiNondQs3U6A-1" source="Vt1QMG08_VuoLKd44Awn-8" target="Vt1QMG08_VuoLKd44Awn-27" edge="1"><mxGeometry width="50" height="50" relative="1" as="geometry"><mxPoint x="370" y="-1820" as="sourcePoint"/><mxPoint x="420" y="-1870" as="targetPoint"/></mxGeometry></mxCell><mxCell id="g3LJiwDds4nOrlNxQ178-2" value="" style="endArrow=classic;html=1;rounded=0;exitX=1;exitY=0.5;exitDx=0;exitDy=0;entryX=0;entryY=0.5;entryDx=0;entryDy=0;" parent="1hRbBe43qiNondQs3U6A-1" source="Vt1QMG08_VuoLKd44Awn-7" target="Vt1QMG08_VuoLKd44Awn-27" edge="1"><mxGeometry width="50" height="50" relative="1" as="geometry"><mxPoint x="370" y="-1720" as="sourcePoint"/><mxPoint x="420" y="-1770" as="targetPoint"/></mxGeometry></mxCell><mxCell id="g3LJiwDds4nOrlNxQ178-3" value="" style="endArrow=classic;html=1;rounded=0;exitX=1;exitY=0.5;exitDx=0;exitDy=0;entryX=0;entryY=0.5;entryDx=0;entryDy=0;" parent="1hRbBe43qiNondQs3U6A-1" source="Vt1QMG08_VuoLKd44Awn-5" target="Vt1QMG08_VuoLKd44Awn-27" edge="1"><mxGeometry width="50" height="50" relative="1" as="geometry"><mxPoint x="400" y="-1790" as="sourcePoint"/><mxPoint x="450" y="-1840" as="targetPoint"/></mxGeometry></mxCell><mxCell id="Vt1QMG08_VuoLKd44Awn-11" value="реплика 3" style="rounded=0;whiteSpace=wrap;html=1;" parent="1hRbBe43qiNondQs3U6A-1" vertex="1"><mxGeometry x="450" y="-1910" width="80" height="20" as="geometry"/></mxCell><mxCell id="c7mgTwvDhmt3xbLBK0CC-0" value="Zookepeer - координирует распределение партиций и реплик между брокерами, а также опередляет кто откуда будет читать" style="text;html=1;strokeColor=none;fillColor=none;align=center;verticalAlign=middle;whiteSpace=wrap;rounded=0;" parent="1hRbBe43qiNondQs3U6A-1" vertex="1"><mxGeometry x="310" y="-2200" width="160" height="90" as="geometry"/></mxCell></root></mxGraphModel></diagram></mxfile>